<?xml version="1.0" standalone="no"?>
<!DOCTYPE svg PUBLIC "-//W3C//DTD SVG 20010904//EN"
 "http://www.w3.org/TR/2001/REC-SVG-20010904/DTD/svg10.dtd">
<svg version="1.0" xmlns="http://www.w3.org/2000/svg"
 width="100.000000pt" height="100.000000pt" viewBox="0 0 100.000000 100.000000"
 preserveAspectRatio="xMidYMid meet">
<metadata>
Created by potrace 1.14, written by Peter Selinger 2001-2017
</metadata>
<g transform="translate(0.000000,100.000000) scale(0.100000,-0.100000)"
fill="#000000" stroke="none">
<path d="M64 896 c-3 -8 -4 -31 -2 -52 l3 -39 123 -3 122 -3 0 -364 c0 -350 1
-365 19 -375 22 -11 61 -13 85 -4 14 5 16 48 16 375 l0 368 128 3 127 3 0 50
0 50 -308 3 c-257 2 -308 0 -313 -12z"/>
<path d="M612 698 c-16 -16 -16 -80 0 -96 18 -18 94 -15 112 4 9 8 16 28 16
44 0 16 -7 36 -16 44 -18 19 -94 22 -112 4z"/>
<path d="M614 517 c-2 -7 -3 -109 -2 -227 l3 -215 34 -3 c19 -2 44 -1 57 2
l24 6 0 219 c0 244 4 231 -71 231 -23 0 -42 -5 -45 -13z"/>
</g>
</svg>
